<svg xmlns="http://www.w3.org/2000/svg" width="220" height="44" viewBox="0 0 220 44">
  <rect x="1" y="1" width="218" height="42" rx="10" fill="#1a1a1a" stroke="white" stroke-width="1.5"/>
  <path d="M46.2 14.2c1.1-1.4 1.9-3.3 1.7-5.2-1.6.1-3.6 1.1-4.7 2.5-1 1.2-1.9 3.1-1.7 5 1.8.1 3.6-1 4.7-2.3zm1.6 2.5c-2.6-.2-4.8 1.5-6.1 1.5-1.2 0-3.1-1.4-5.1-1.4-2.6 0-5.1 1.5-6.4 3.9-2.7 4.7-.7 11.7 2 15.6 1.3 1.9 2.9 4 5 3.9 2-.1 2.8-1.3 5.2-1.3 2.4 0 3.1 1.3 5.2 1.2 2.2 0 3.5-1.9 4.8-3.9 1.5-2.2 2.1-4.3 2.1-4.4 0-.1-4.1-1.6-4.2-6.2 0-3.9 3.2-5.7 3.3-5.8-1.8-2.6-4.6-2.9-5.6-3.1h-.2z" fill="white" transform="translate(-4, 2) scale(0.7)"/>
  <text x="126" y="27" text-anchor="middle" fill="white" font-family="-apple-system, BlinkMacSystemFont, 'Helvetica Neue', sans-serif" font-size="15" font-weight="500">Download for Mac</text>
</svg>
